<svg xmlns="http://www.w3.org/2000/svg" version="1.1" xmlns:xlink="http://www.w3.org/1999/xlink" xmlns:svgjs="http://svgjs.dev/svgjs" width="2000" height="1500" viewBox="0 0 2000 1500"><rect width="2000" height="1500" fill="#ffffff"></rect><g transform="matrix(0.75,0,0,0.75,249.090909090909,446.3218658610273)"><svg viewBox="0 0 396 160" data-background-color="#ffffff" preserveAspectRatio="xMidYMid meet" height="808" width="2000" xmlns="http://www.w3.org/2000/svg" xmlns:xlink="http://www.w3.org/1999/xlink"><g id="tight-bounds" transform="matrix(1,0,0,1,0.2400000000000091,0.17904531722052752)"><svg viewBox="0 0 395.52 159.64190936555894" height="159.64190936555894" width="395.52"><g><svg viewBox="0 0 395.52 159.64190936555894" height="159.64190936555894" width="395.52"><g><svg viewBox="0 0 395.52 159.64190936555894" height="159.64190936555894" width="395.52"><g id="textblocktransform"><svg viewBox="0 0 395.52 159.64190936555894" height="159.64190936555894" width="395.52" id="textblock"><g><svg viewBox="0 0 395.52 159.64190936555894" height="159.64190936555894" width="395.52"><g transform="matrix(1,0,0,1,0,0)"><svg width="395.52" viewBox="4.9 -32.8 82.75 33.4" height="159.64190936555894" data-palette-color="#fbb04b"><path d="M13.8 0L9.9 0 15.8-29.45 4.9-29.45 5.55-32.8 31.25-32.8 30.55-29.45 19.65-29.45 13.8 0ZM43.5 0.6L43.5 0.6Q38.75 0.6 35.95-2.08 33.15-4.75 33.15-9.9L33.15-9.9Q33.15-13.2 34.27-15.95 35.4-18.7 37.32-20.68 39.25-22.65 41.75-23.78 44.25-24.9 47-24.9L47-24.9Q49.25-24.9 50.97-24.2 52.7-23.5 53.87-22.25 55.05-21 55.65-19.28 56.25-17.55 56.25-15.55L56.25-15.55Q56.25-14.25 56.02-12.98 55.8-11.7 55.6-11.2L55.6-11.2 37-11.2Q36.95-10.95 36.95-10.68 36.95-10.4 36.95-10.1L36.95-10.1Q36.95-6.4 38.95-4.42 40.95-2.45 44.25-2.45L44.25-2.45Q46.65-2.45 48.75-3.35 50.85-4.25 52.55-5.6L52.55-5.6 54-3Q52.15-1.55 49.42-0.48 46.7 0.6 43.5 0.6ZM46.8-21.85L46.8-21.85Q45.4-21.85 44-21.33 42.6-20.8 41.37-19.8 40.15-18.8 39.15-17.38 38.15-15.95 37.6-14.2L37.6-14.2 52.5-14.2Q52.65-14.95 52.65-15.7L52.65-15.7Q52.65-18.55 51.07-20.2 49.5-21.85 46.8-21.85ZM70.95 0.6L70.95 0.6Q67.15 0.6 64.87-1.78 62.6-4.15 62.6-8.7L62.6-8.7Q62.6-11.95 63.65-14.9 64.7-17.85 66.5-20.08 68.3-22.3 70.72-23.6 73.15-24.9 75.95-24.9L75.95-24.9Q78.55-24.9 80.47-23.9 82.4-22.9 83.4-21.25L83.4-21.25 83.59-21.25 84.55-24.3 87.65-24.3 82.8 0 79.65 0 80.05-3.7 79.84-3.7Q77.95-1.75 75.62-0.58 73.3 0.6 70.95 0.6ZM72.09-2.6L72.09-2.6Q74.09-2.6 76.27-3.8 78.45-5 80.45-7.3L80.45-7.3 82.7-18.1Q81.45-20 79.82-20.85 78.2-21.7 76.45-21.7L76.45-21.7Q74.34-21.7 72.55-20.68 70.75-19.65 69.42-17.93 68.09-16.2 67.32-13.98 66.55-11.75 66.55-9.3L66.55-9.3Q66.55-5.85 68.05-4.23 69.55-2.6 72.09-2.6Z" opacity="1" transform="matrix(1,0,0,1,0,0)" fill="#fbb04b" class="wordmark-text-0" data-fill-palette-color="primary" id="text-0"></path></svg></g></svg></g></svg></g></svg></g></svg></g><defs></defs></svg><rect width="395.52" height="159.64190936555894" fill="none" stroke="none" visibility="hidden"></rect></g></svg></g></svg>